<svg width="18" height="25" viewBox="0 0 18 25" fill="none" xmlns="http://www.w3.org/2000/svg">
<path d="M9.12501 24.0195L0.96137 12.4605C0.919127 12.4007 0.919127 12.3208 0.96137 12.261L9.12501 0.702081C9.19394 0.604515 9.33862 0.604515 9.40754 0.702081L17.5712 12.261C17.6135 12.3208 17.6135 12.4007 17.5712 12.4605L9.40754 24.0195C9.33867 24.1171 9.19394 24.1171 9.12501 24.0195Z" fill="#7110D0"/>
<path d="M17.5698 12.261L9.40607 0.702081C9.33714 0.604515 9.19246 0.604515 9.12354 0.702081L8.47656 1.61813L15.9932 12.261C16.0355 12.3208 16.0355 12.4007 15.9932 12.4605L8.47656 23.1034L9.12354 24.0195C9.19246 24.1171 9.33714 24.1171 9.40607 24.0195L17.5698 12.4605C17.612 12.4007 17.612 12.3208 17.5698 12.261Z" fill="#420083"/>
</svg>
