<svg width="20" height="19" viewBox="0 0 20 19" fill="none" xmlns="http://www.w3.org/2000/svg">
<path d="M9.82282 0.351806L2.51905 3.8691C2.43188 3.91109 2.36855 3.99051 2.34702 4.08484L0.54313 11.9882C0.521602 12.0825 0.544195 12.1815 0.604518 12.2572L5.65889 18.5952C5.71921 18.6708 5.81073 18.7149 5.90749 18.7149H14.0141C14.1108 18.7149 14.2023 18.6708 14.2627 18.5952L19.317 12.2572C19.3774 12.1815 19.3999 12.0825 19.3784 11.9882L17.5745 4.08484C17.553 3.99051 17.4897 3.91109 17.4025 3.8691L10.0988 0.351806C10.0116 0.309815 9.91 0.309815 9.82282 0.351806Z" fill="#7110D0"/>
<path d="M19.3799 11.9882L17.576 4.08484C17.5545 3.99051 17.4912 3.91109 17.404 3.8691L10.1002 0.351806C10.0131 0.309815 9.91151 0.309815 9.82429 0.351806L8.87109 0.810851L15.6955 4.09731C15.7827 4.1393 15.846 4.21872 15.8676 4.31305L17.6715 12.2164C17.693 12.3107 17.6704 12.4097 17.6101 12.4854L12.6422 18.7149H14.0155C14.1123 18.7149 14.2038 18.6708 14.2641 18.5951L19.3185 12.2572C19.3788 12.1815 19.4015 12.0825 19.3799 11.9882Z" fill="#420083"/>
<path d="M19.6914 12.0738L17.8193 3.87192C17.8 3.78725 17.7432 3.71605 17.665 3.67839L10.0853 0.0282411C10.0071 -0.00941369 9.91601 -0.00941369 9.83777 0.0282411L4.98579 2.36481C4.84384 2.43316 4.78416 2.60364 4.85255 2.74558C4.92094 2.88757 5.09141 2.94725 5.23332 2.87882L9.96154 0.601849L17.2937 4.13284L19.1046 12.0668L18.1986 13.2029C18.1004 13.326 18.1207 13.5055 18.2438 13.6038C18.2964 13.6457 18.3591 13.666 18.4215 13.666C18.5053 13.666 18.5884 13.6292 18.6447 13.5586L19.6363 12.3152C19.6904 12.2472 19.7107 12.1584 19.6914 12.0738Z" fill="black"/>
<path d="M17.9135 14.0218C17.7903 13.9235 17.6108 13.9437 17.5126 14.067L14.0326 18.4308H5.89454L0.820471 12.0682L2.6314 4.13419L4.24154 3.35877C4.38349 3.29042 4.44316 3.11994 4.37478 2.978C4.30639 2.83601 4.13588 2.77633 3.99401 2.84476L2.2601 3.67974C2.18186 3.7174 2.12508 3.7886 2.10575 3.87327L0.233742 12.0752C0.214382 12.1598 0.234655 12.2486 0.288779 12.3165L5.53412 18.8939C5.58825 18.9618 5.67033 19.0014 5.75712 19.0014H14.17C14.2568 19.0014 14.3388 18.9618 14.393 18.8939L17.9586 14.4227C18.0569 14.2995 18.0367 14.12 17.9135 14.0218Z" fill="black"/>
</svg>
