<svg width="25" height="24" viewBox="0 0 25 24" fill="none" xmlns="http://www.w3.org/2000/svg">
<path d="M11.9817 0.439632L0.467249 8.80539C0.398769 8.85511 0.37013 8.94329 0.396312 9.02378L4.79446 22.5599C4.82059 22.6403 4.89559 22.6948 4.98024 22.6948H19.2129C19.2975 22.6948 19.3725 22.6403 19.3987 22.5599L23.7968 9.02378C23.8229 8.94329 23.7943 8.85515 23.7259 8.80539L12.2113 0.439632C12.1429 0.389914 12.0502 0.389914 11.9817 0.439632Z" fill="#7110D0"/>
<path d="M23.7275 8.80539L12.2131 0.439632C12.1446 0.389914 12.0519 0.389914 11.9834 0.439632L10.9336 1.20241L22.1137 9.32525C22.1822 9.37497 22.2108 9.46315 22.1847 9.54364L17.9116 22.6948H19.2145C19.2992 22.6948 19.3741 22.6403 19.4003 22.5598L23.7984 9.02373C23.8246 8.94329 23.796 8.85511 23.7275 8.80539Z" fill="#420083"/>
<path d="M24.0505 8.60028L12.3064 0.0676998C12.1822 -0.0225666 12.014 -0.0225666 11.8898 0.0676998L3.32193 6.29258C3.16351 6.40766 3.12845 6.62931 3.24352 6.78768C3.35865 6.94614 3.58025 6.9813 3.73862 6.86608L12.098 0.792572L23.4255 9.02241L21.858 13.8466C21.7975 14.0327 21.8994 14.2327 22.0856 14.2932C22.122 14.305 22.1589 14.3106 22.1952 14.3106C22.3446 14.3106 22.4835 14.2154 22.5322 14.0656L24.1792 8.99651C24.2267 8.85052 24.1747 8.69055 24.0505 8.60028Z" fill="black"/>
<path d="M21.8801 14.927C21.6942 14.8666 21.494 14.9683 21.4335 15.1545L19.0993 22.3385H5.0979L0.771165 9.02233L2.61307 7.68417C2.77149 7.56909 2.80655 7.34744 2.69148 7.18907C2.5764 7.03066 2.3548 6.99555 2.19638 7.11067L0.146153 8.60021C0.0219069 8.69043 -0.030079 8.85045 0.0173699 8.99648L4.50323 22.8025C4.55068 22.9485 4.68679 23.0474 4.84034 23.0474H19.3568C19.5104 23.0474 19.6465 22.9485 19.6939 22.8025L22.1077 15.3736C22.1682 15.1874 22.0663 14.9875 21.8801 14.927Z" fill="black"/>
</svg>
