<svg width="65" height="65" viewBox="0 0 65 65" fill="none" xmlns="http://www.w3.org/2000/svg">
<path d="M25.1128 8.72172C27.3976 6.43721 30.3084 4.8815 33.4773 4.25129C36.6462 3.62108 39.9308 3.94468 42.9157 5.18118C45.9007 6.41769 48.452 8.51155 50.247 11.198C52.0419 13.8844 53 17.0428 53 20.2738C53 23.5047 52.0419 26.6631 50.247 29.3495C48.452 32.036 45.9007 34.1299 42.9157 35.3664C39.9308 36.6029 36.6462 36.9265 33.4773 36.2963C30.3084 35.666 27.3976 34.1103 25.1128 31.8258C23.5956 30.3089 22.3921 28.5079 21.571 26.5258C20.7499 24.5437 20.3273 22.4192 20.3273 20.2738C20.3273 18.1283 20.7499 16.0039 21.571 14.0217C22.3921 12.0396 23.5956 10.2387 25.1128 8.72172ZM27.429 29.5024C29.2545 31.3286 31.5805 32.5723 34.1129 33.0764C36.6454 33.5805 39.2704 33.3222 41.656 32.3343C44.0417 31.3464 46.0808 29.6732 47.5154 27.5263C48.95 25.3795 49.7158 22.8554 49.7158 20.2733C49.7158 17.6911 48.95 15.167 47.5154 13.0202C46.0808 10.8733 44.0417 9.20008 41.656 8.21217C39.2704 7.22425 36.6454 6.96601 34.1129 7.47009C31.5805 7.97418 29.2545 9.21795 27.429 11.0441C24.987 13.4949 23.6159 16.8136 23.6159 20.2733C23.6159 23.7329 24.987 27.0516 27.429 29.5024Z" fill="#913BEF"/>
<path d="M11.7889 42.4523L14.4812 45.1431C14.6661 45.3244 14.9146 45.426 15.1736 45.426C15.4325 45.426 15.6811 45.3244 15.8659 45.1431L24.4279 36.5764C24.9463 37.0874 25.6456 37.3727 26.3734 37.3703C27.1012 37.3679 27.7986 37.0778 28.3135 36.5634L29.0602 35.8104C27.3432 34.9742 25.7795 33.8544 24.4347 32.4983C23.0802 31.1487 21.959 29.5837 21.1169 27.8671L20.3702 28.62C19.8557 29.1349 19.5657 29.8323 19.5632 30.5601C19.5608 31.288 19.8462 31.9873 20.3572 32.5056L11.7889 41.0681C11.6075 41.253 11.506 41.5016 11.506 41.7605C11.506 42.0194 11.6075 42.268 11.7889 42.4528V42.4523Z" fill="#913BEF"/>
<path d="M16.6923 51.5891H12.2473C12.0509 51.5894 11.8626 51.6675 11.7237 51.8064C11.5848 51.9454 11.5066 52.1337 11.5063 52.3301V61.2205H17.4333V52.3301C17.433 52.1337 17.3548 51.9454 17.2159 51.8064C17.077 51.6675 16.8887 51.5894 16.6923 51.5891Z" fill="#420083"/>
<path d="M28.5457 41.2168H24.1007C23.9043 41.2171 23.716 41.2952 23.5771 41.4341C23.4382 41.573 23.36 41.7614 23.3597 41.9578V61.2201H29.2867V41.9578C29.2864 41.7614 29.2082 41.573 29.0693 41.4341C28.9304 41.2952 28.7421 41.2171 28.5457 41.2168Z" fill="#420083"/>
<path d="M40.4 45.6611H35.9551C35.7587 45.6614 35.5704 45.7396 35.4314 45.8785C35.2925 46.0174 35.2144 46.2057 35.2141 46.4021V61.22H41.141V46.4032C41.141 46.2065 41.063 46.018 40.9241 45.8788C40.7851 45.7397 40.5967 45.6614 40.4 45.6611Z" fill="#420083"/>
<path d="M52.2538 39.7356H47.8089C47.6124 39.7359 47.4241 39.814 47.2852 39.9529C47.1463 40.0918 47.0681 40.2802 47.0679 40.4766V61.2208H52.9969V40.4766C52.9968 40.3791 52.9775 40.2826 52.9401 40.1926C52.9027 40.1026 52.848 40.0209 52.779 39.952C52.7099 39.8832 52.628 39.8287 52.5379 39.7915C52.4478 39.7544 52.3513 39.7354 52.2538 39.7356Z" fill="#420083"/>
<path d="M36.6539 10.8469C37.1392 10.8469 37.6137 10.9909 38.0172 11.2605C38.4208 11.5302 38.7353 11.9134 38.9211 12.3618C39.1068 12.8103 39.1554 13.3037 39.0607 13.7797C38.966 14.2557 38.7323 14.693 38.3891 15.0362C38.0459 15.3794 37.6087 15.6131 37.1326 15.7078C36.6566 15.8025 36.1632 15.7539 35.7147 15.5682C35.2663 15.3824 34.8831 15.0679 34.6134 14.6643C34.3438 14.2608 34.1998 13.7863 34.1998 13.301C34.1998 12.6501 34.4584 12.0259 34.9186 11.5657C35.3788 11.1055 36.003 10.8469 36.6539 10.8469Z" fill="#420083"/>
<path d="M36.6539 10.5858C37.1909 10.5858 37.7158 10.7451 38.1624 11.0434C38.6089 11.3418 38.9569 11.7658 39.1624 12.262C39.3679 12.7581 39.4217 13.3041 39.3169 13.8308C39.2122 14.3575 38.9536 14.8413 38.5738 15.221C38.1941 15.6008 37.7103 15.8594 37.1836 15.9641C36.6569 16.0689 36.1109 16.0151 35.6148 15.8096C35.1186 15.6041 34.6946 15.2561 34.3962 14.8096C34.0978 14.3631 33.9386 13.8381 33.9386 13.3011C33.9394 12.5812 34.2258 11.891 34.7348 11.382C35.2438 10.873 35.934 10.5866 36.6539 10.5858ZM36.6539 15.4939C37.0875 15.4935 37.5112 15.3645 37.8715 15.1233C38.2319 14.8821 38.5126 14.5395 38.6783 14.1388C38.8439 13.7381 38.887 13.2972 38.8022 12.872C38.7173 12.4468 38.5083 12.0562 38.2016 11.7498C37.8948 11.4433 37.5041 11.2347 37.0788 11.1502C36.6535 11.0658 36.2127 11.1093 35.8121 11.2754C35.4116 11.4414 35.0692 11.7225 34.8284 12.083C34.5875 12.4436 34.459 12.8675 34.459 13.3011C34.4597 13.8828 34.6912 14.4404 35.1027 14.8516C35.5142 15.2627 36.0721 15.4937 36.6539 15.4939Z" fill="#420083"/>
<path d="M43.8334 16.0683C39.0795 16.956 34.2024 16.956 29.4485 16.0683C29.3524 16.0504 29.2537 16.0517 29.1582 16.0723C29.0626 16.0928 28.9721 16.1322 28.8919 16.1881C28.8117 16.244 28.7434 16.3153 28.6911 16.3978C28.6387 16.4803 28.6032 16.5725 28.5868 16.6688C28.5671 16.7651 28.5671 16.8643 28.5869 16.9606C28.6067 17.0568 28.6459 17.148 28.7021 17.2286C28.7582 17.3092 28.8302 17.3775 28.9137 17.4294C28.9971 17.4814 29.0902 17.5157 29.1873 17.5305C30.8021 17.8221 32.432 18.0226 34.0694 18.131C34.3797 18.1549 34.6683 18.2995 34.8733 18.5338C35.0783 18.768 35.1833 19.0733 35.1658 19.3841V19.4361L35.0352 20.6631C34.8177 22.5892 34.3706 24.4824 33.7035 26.3023L32.8158 28.6783C32.7485 28.8582 32.7544 29.0574 32.8323 29.2331C32.9101 29.4087 33.0536 29.5469 33.2321 29.618C33.4121 29.6852 33.6112 29.6792 33.7868 29.6014C33.9624 29.5236 34.1007 29.3801 34.1719 29.2018L34.38 28.7579C35.0851 27.2436 35.7636 25.6773 36.3641 24.111C36.3777 24.0704 36.3996 24.0331 36.4285 24.0014C36.4574 23.9698 36.4926 23.9445 36.5318 23.9273C36.571 23.9101 36.6134 23.9013 36.6562 23.9015C36.699 23.9017 36.7414 23.9109 36.7804 23.9284C36.822 23.9442 36.8599 23.9687 36.8913 24.0002C36.9228 24.0316 36.9473 24.0694 36.9631 24.111C37.5636 25.6773 38.2421 27.2441 38.9472 28.7579L39.1824 29.2538C39.2352 29.3839 39.3254 29.4955 39.4415 29.5745C39.5576 29.6535 39.6945 29.6964 39.835 29.6977C39.9238 29.6929 40.0114 29.6753 40.0952 29.6456C40.1865 29.6138 40.2706 29.5641 40.3425 29.4994C40.4145 29.4347 40.4728 29.3563 40.5141 29.2688C40.5555 29.1813 40.579 29.0865 40.5832 28.9898C40.5875 28.8932 40.5725 28.7966 40.539 28.7058V28.6798L39.6513 26.3039C38.9779 24.4858 38.5306 22.5919 38.3197 20.6647L38.1891 19.4377C38.1562 19.1304 38.2441 18.8225 38.4341 18.5789C38.6242 18.3352 38.9014 18.175 39.2074 18.1321H39.2595C40.8807 18.0366 42.4941 17.836 44.0895 17.5316C44.2708 17.5018 44.4359 17.4093 44.5561 17.2703C44.6763 17.1313 44.7439 16.9545 44.7472 16.7708C44.7472 16.5776 44.6704 16.3923 44.5338 16.2557C44.3972 16.1191 44.2119 16.0423 44.0187 16.0423C43.9566 16.0361 43.8939 16.0451 43.836 16.0683H43.8334Z" fill="#420083"/>
<path d="M44.016 15.7809C44.2789 15.7813 44.5309 15.8859 44.7169 16.0718C44.9028 16.2578 45.0074 16.5098 45.0078 16.7727V16.7899C44.9996 17.0306 44.9087 17.2612 44.7504 17.4428C44.5922 17.6244 44.3762 17.7459 44.1388 17.7869C42.5346 18.0933 40.9121 18.295 39.2817 18.3905H39.2297C38.9964 18.4299 38.7866 18.5562 38.6426 18.744C38.4986 18.9317 38.431 19.167 38.4533 19.4026V19.4073L38.5839 20.6343C38.792 22.5399 39.2342 24.4126 39.9005 26.21L40.8043 28.6297V28.6635C40.8738 28.9008 40.8553 29.1553 40.7523 29.38C40.6973 29.5 40.618 29.6074 40.5195 29.6952C40.421 29.7831 40.3054 29.8496 40.1799 29.8905C40.0693 29.9292 39.9535 29.9513 39.8364 29.9561C39.6453 29.9548 39.4587 29.8971 39.3001 29.7904C39.1415 29.6837 39.0178 29.5327 38.9445 29.3561L38.7119 28.8654C37.947 27.2226 37.2773 25.6537 36.7205 24.2014L36.7174 24.1936C36.7118 24.1851 36.7045 24.1779 36.6961 24.1723L36.6815 24.1676L36.6648 24.1593C36.662 24.1576 36.6588 24.1567 36.6555 24.1566C36.644 24.1566 36.6211 24.1728 36.6034 24.2087C36.0472 25.6595 35.378 27.2268 34.6146 28.8665L34.4101 29.301C34.3373 29.486 34.2099 29.6444 34.0448 29.7552C33.8797 29.866 33.6847 29.9239 33.4859 29.9212C33.3706 29.9211 33.256 29.9022 33.1467 29.8655H33.1415C33.0203 29.8221 32.9093 29.7543 32.8154 29.6662C32.7215 29.5781 32.6467 29.4717 32.5956 29.3535C32.4911 29.1143 32.4798 28.8446 32.5639 28.5974L32.567 28.5886L33.4542 26.2142C34.1144 24.4144 34.5566 22.5419 34.7712 20.6369L34.9003 19.424V19.375C34.9156 19.1318 34.8346 18.8924 34.6747 18.7085C34.5147 18.5246 34.2888 18.4111 34.0458 18.3926C32.3996 18.2841 30.7608 18.0825 29.1373 17.789C28.8745 17.7431 28.6404 17.5959 28.4853 17.3789C28.4099 17.2698 28.3572 17.1466 28.3304 17.0168C28.3035 16.8869 28.3031 16.7529 28.3292 16.6228C28.3703 16.3925 28.4906 16.1837 28.6693 16.0326C28.848 15.8815 29.0739 15.7976 29.3079 15.7955C29.3714 15.7955 29.4346 15.8018 29.4968 15.8142C31.8525 16.2534 34.2436 16.4746 36.6399 16.4751C39.0267 16.4747 41.4085 16.2552 43.7553 15.8194C43.8388 15.7895 43.9274 15.7764 44.016 15.7809ZM44.4843 16.7644C44.4825 16.6413 44.4324 16.524 44.3448 16.4376C44.2571 16.3512 44.139 16.3028 44.016 16.3028C43.99 16.3028 43.9577 16.3028 43.9442 16.3028L43.9176 16.3163L43.8817 16.3231C41.494 16.7685 39.0703 16.9929 36.6414 16.9933C34.2125 16.9929 31.7888 16.7685 29.4011 16.3231H29.398C29.3688 16.3173 29.3392 16.3143 29.3095 16.3143C29.1974 16.3165 29.0895 16.3578 29.0046 16.431C28.9196 16.5043 28.863 16.6049 28.8443 16.7155C28.8316 16.7779 28.8318 16.8422 28.8448 16.9045C28.8577 16.9668 28.8833 17.0258 28.9199 17.078C28.9565 17.1301 29.0033 17.1742 29.0575 17.2076C29.1117 17.241 29.1721 17.263 29.2351 17.2723C30.8397 17.5625 32.4594 17.7617 34.0864 17.8691H34.0906C34.4687 17.8973 34.8204 18.0735 35.0694 18.3593C35.3154 18.6439 35.4434 19.0117 35.4274 19.3875V19.4484L35.2952 20.6895C35.0761 22.6366 34.6243 24.5504 33.9496 26.39L33.065 28.7608C33.0205 28.8754 33.0224 29.0028 33.0703 29.116C33.1182 29.2291 33.2083 29.3192 33.3215 29.367C33.3769 29.3853 33.4349 29.3946 33.4932 29.3946C33.5869 29.3984 33.6794 29.3727 33.7577 29.3213C33.8361 29.2699 33.8964 29.1953 33.9303 29.1079L33.9345 29.0959L34.1489 28.6406C34.9081 27.0098 35.5731 25.4524 36.1263 24.0094L36.1299 24C36.1725 23.8929 36.2456 23.8007 36.3401 23.7347C36.4347 23.6688 36.5465 23.632 36.6617 23.629C36.7402 23.6296 36.8177 23.6473 36.8886 23.681C36.9634 23.7109 37.0312 23.7561 37.0876 23.8138C37.144 23.8714 37.1877 23.9401 37.2159 24.0156C37.768 25.455 38.432 27.0108 39.1933 28.6411L39.4342 29.1511C39.4679 29.2327 39.5247 29.3027 39.5977 29.3524C39.6706 29.4022 39.7565 29.4295 39.8448 29.431C39.9057 29.426 39.9657 29.4129 40.0232 29.392C40.0824 29.3714 40.1368 29.3391 40.1832 29.2969C40.2295 29.2548 40.2669 29.2036 40.293 29.1466C40.319 29.0897 40.3333 29.028 40.3348 28.9653C40.3364 28.9027 40.3253 28.8404 40.3022 28.7822L40.2886 28.7421V28.7208L39.4175 26.389C38.7361 24.5509 38.284 22.6357 38.0714 20.6869L37.9408 19.4614C37.8999 19.0858 38.0071 18.7091 38.2396 18.4114C38.4722 18.1136 38.8117 17.9183 39.186 17.867H39.2021H39.262C40.869 17.7728 42.4681 17.5739 44.0493 17.2717H44.0628C44.1812 17.2492 44.288 17.1863 44.3652 17.0938C44.4423 17.0013 44.485 16.8848 44.4859 16.7644H44.4843Z" fill="#420083"/>
</svg>
